<?xml version="1.0" encoding="utf-8"?>
<!-- Generator: Adobe Illustrator 24.0.1, SVG Export Plug-In . SVG Version: 6.00 Build 0)  -->
<svg version="1.1" id="Layer_1" xmlns="http://www.w3.org/2000/svg" xmlns:xlink="http://www.w3.org/1999/xlink" x="0px" y="0px"
	 viewBox="0 0 2400 645.2" style="enable-background:new 0 0 2400 645.2;" xml:space="preserve">
<style type="text/css">
	.st0{filter:url(#Adobe_OpacityMaskFilter);}
	.st1{fill:#FFFFFF;fill-opacity:0;}
	.st2{fill:#FFFFFF;}
	.st3{mask:url(#SVGID_1_);fill:url(#SVGID_2_);}
	.st4{fill:#333333;}
	.st5{filter:url(#d3098fe5-a82b-4eea-b86d-1679d17090ed);}
	.st6{opacity:0;fill:#333333;}
	.st7{filter:url(#Adobe_OpacityMaskFilter_1_);}
	.st8{fill-rule:evenodd;clip-rule:evenodd;fill:#FFFFFF;}
	.st9{mask:url(#_x37_1d79b02-fa79-452f-b2d1-060b5212a608_2_);}
	.st10{fill-rule:evenodd;clip-rule:evenodd;fill:#333333;}
</style>
<defs>
	<filter id="Adobe_OpacityMaskFilter" filterUnits="userSpaceOnUse" x="-24.5" y="23.5" width="598.2" height="598.2">
		<feColorMatrix  type="matrix" values="1 0 0 0 0  0 1 0 0 0  0 0 1 0 0  0 0 0 1 0"/>
	</filter>
</defs>
<mask maskUnits="userSpaceOnUse" x="-24.5" y="23.5" width="598.2" height="598.2" id="SVGID_1_">
	<g class="st0">
		<g transform="translate(0,0)">
			<g>
				<rect x="101.5" y="100.5" class="st1" width="444.3" height="444.4"/>
				<path class="st2" d="M545.1,101.2c0.3,0.3,0.5,1,0.5,2c0.3,143.1,0.3,244.2,0.1,303.3c-0.1,16.2-1.4,33.8-8.3,51.8
					c-7,18.4-17.2,34.3-30.5,47.6c-13.3,13.3-29.2,23.5-47.6,30.6c-17.9,6.9-35.6,8.3-51.8,8.3c-59.1,0.2-160.1,0.2-303.3-0.1
					c-1,0-1.6-0.2-2-0.5c-0.3-0.3-0.5-1-0.5-2c-0.3-143.1-0.3-244.2-0.1-303.3c0.1-16.2,1.4-33.8,8.3-51.8
					c7-18.4,17.2-34.3,30.5-47.6c13.3-13.3,29.2-23.5,47.6-30.6c17.9-6.9,35.6-8.3,51.8-8.3c59.1-0.2,160.1-0.2,303.3,0.1
					C544.1,100.7,544.8,100.9,545.1,101.2z M324.2,511.2c13.5,0,26.4-1.1,38.6-3.3c36-6.4,71-24,97.1-50
					c37.6-37.6,55.9-84.2,54.9-139.6c-1.1-60.2-28.3-115.2-77.7-149.6c-34.4-23.9-72.4-34.5-113.7-34.4
					c-41.2,0.1-79.2,10.8-113.5,34.8c-49.2,34.6-76.1,89.7-77.1,149.9c-0.8,55.4,17.7,101.9,55.5,139.4c26.2,26,61.2,43.4,97.3,49.6
					C297.8,510.2,310.7,511.3,324.2,511.2z"/>
				<path class="st2" d="M324.5,215.7c62.1,0.3,106.1,45.5,105.8,107.5c-0.3,62-44.8,106.7-106.9,106.4S217.2,384,217.5,322.1
					C217.9,260.1,262.3,215.4,324.5,215.7z"/>
			</g>
		</g>
	</g>
</mask>
<linearGradient id="SVGID_2_" gradientUnits="userSpaceOnUse" x1="892.3046" y1="719.546" x2="893.3046" y2="719.546" gradientTransform="matrix(598.1697 0 0 -598.1697 -533774.0625 430733.1562)">
	<stop  offset="0" style="stop-color:#FD9248"/>
	<stop  offset="0.5" style="stop-color:#FA1768"/>
	<stop  offset="1" style="stop-color:#F001FF"/>
</linearGradient>
<rect x="-24.5" y="23.5" class="st3" width="598.2" height="598.2"/>
<g transform="translate(39, 0)">
	<g transform="scale(0.7799999999999998)">
		<path class="st4" d="M933.8,436.5L933.8,436.5c0-34.9-7.9-62-23.6-81.4c-15.8-19.5-41.1-29.2-76-29.2l0,0c-7.3,0-15,0.3-23,1
			c-8,0.7-15.9,2.1-23.6,4.2l0,0v193.4c6.9,4.8,16.1,9.2,27.6,13.3c11.4,4.1,23.6,6.2,36.5,6.2l0,0c28.5,0,49.3-9.7,62.4-29.1
			C927.3,495.4,933.8,469.3,933.8,436.5z M1014.1,435.3L1014.1,435.3c0,25.9-3.4,49.6-10.1,71.2c-6.7,21.6-16.2,40.1-28.7,55.6
			c-12.6,15.6-28.2,27.7-46.9,36.3c-18.8,8.6-40.1,12.9-63.8,12.9l0,0c-15.9,0-30.6-1.9-44-5.8c-13.3-3.9-24.3-8.2-33-12.9l0,0
			v131.3h-78.2V276.8c15.9-4.3,35.6-8.4,58.9-12.3c23.3-3.9,47.8-5.8,73.7-5.8l0,0c26.8,0,50.7,4.1,71.8,12.3
			c21.2,8.3,39.2,20,54.1,35.3c14.8,15.3,26.2,33.9,34.3,55.6C1010.1,383.6,1014.1,408.1,1014.1,435.3z"/>
	</g>
</g>
<g transform="translate(61, 0)">
	<g transform="scale(0.7799999999999998)">
		<path class="st4" d="M1037.7,436.5L1037.7,436.5c0-29.7,4.4-55.8,13.3-78.2c8.8-22.4,20.5-41.1,35.3-56
			c14.7-14.8,31.5-26,50.4-33.6c19-7.5,38.3-11.2,58.1-11.2l0,0c46.6,0,83,14.5,109.1,43.4c26,28.9,39.1,72,39.1,129.3l0,0
			c0,4.3-0.1,9.1-0.3,14.5c-0.3,5.4-0.6,10.3-1,14.7l0,0h-223.2c2.2,27.1,11.8,48.2,28.8,63.1c17,14.8,41.7,22.2,74.1,22.2l0,0
			c19,0,36.3-1.7,52.1-5.2c15.8-3.5,28.1-7.1,37.2-11l0,0l10.4,64.1c-4.3,2.1-10.2,4.4-17.7,6.8c-7.6,2.4-16.2,4.5-25.9,6.4
			c-9.7,1.9-20.1,3.5-31.3,4.8c-11.2,1.3-22.7,2-34.4,2l0,0c-29.7,0-55.6-4.4-77.6-13.3s-40.1-21.2-54.4-36.9
			c-14.2-15.8-24.8-34.3-31.6-55.6C1041.2,485.4,1037.7,462,1037.7,436.5z M1119.2,401.6h145.5c0-10.8-1.5-21-4.6-30.7
			c-3-9.7-7.5-18.1-13.3-25.3c-5.8-7.1-12.9-12.7-21.4-16.8c-8.3-4-18.4-6.1-30.1-6.1l0,0c-12,0-22.6,2.2-31.6,6.7
			c-9.1,4.6-16.8,10.5-23,17.8c-6.2,7.3-11.1,15.8-14.5,25.3C1122.9,382,1120.5,391.7,1119.2,401.6L1119.2,401.6z"/>
	</g>
</g>
<g transform="translate(83, 0)">
	<g transform="scale(0.7799999999999998)">
		<path class="st4" d="M1366,604.1V276.8c15.1-4.3,34.7-8.4,58.9-12.3c24.1-3.9,50.8-5.8,80.1-5.8l0,0c27.6,0,50.7,3.8,69.3,11.4
			c18.5,7.5,33.3,18,44.4,31.6c11,13.7,18.7,30,23.3,49.2c4.6,19.2,6.8,40.2,6.8,63.1l0,0v190.2h-78.4V426.3
			c0-18.1-1.2-33.5-3.5-46.3c-2.4-12.7-6.2-23.1-11.6-31.1s-12.7-13.8-22-17.4c-9.3-3.7-20.6-5.6-34-5.6l0,0c-9.9,0-20.2,0.7-31,2
			c-10.8,1.3-18.8,2.3-24,3.2l0,0v273H1366z"/>
	</g>
</g>
<g transform="translate(104, 0)">
	<g transform="scale(0.7799999999999998)">
		<path class="st4" d="M1806.1,151.2L1806.1,151.2c65.1,0,115.1,11.9,149.8,35.6c34.7,23.7,52.1,60.8,52.1,111.2l0,0
			c0,26.3-4.6,48.8-13.9,67.6s-22.8,34.1-40.4,45.9c-17.7,11.9-39.3,20.6-64.7,26.3c-25.4,5.6-54.6,8.3-87.3,8.3l0,0h-40.7v157.9
			h-81.5V162.2c19-4.3,40-7.2,63.1-8.7C1765.5,152,1786.8,151.2,1806.1,151.2z M1812,221.8L1812,221.8c-20.7,0-37.8,0.7-51.1,2l0,0
			v152.6h39.4c39.3,0,69.4-5.5,90.5-16.4c21.2-11,31.7-31.9,31.7-62.4l0,0c0-14.7-2.8-27-8.3-36.9c-5.6-9.9-13.4-17.6-23.4-23.3
			c-9.9-5.6-21.6-9.6-35.3-12C1842,222.9,1827.5,221.8,1812,221.8z"/>
	</g>
</g>
<g transform="translate(128, 0)">
	<g transform="scale(0.7799999999999998)">
		<path class="st4" d="M2167.6,545.8l-11,64.7c-23.3-0.4-42.7-3-58-7.7c-15.3-4.8-27.4-11.6-36.5-20.3c-9-8.8-15.4-19.8-19.1-33
			c-3.6-13.2-5.4-28.2-5.4-45l0,0V115.1l78.2-13v387.5c0,9.5,0.8,17.5,2.3,23.9c1.5,6.5,4.2,12,8.1,16.6c3.9,4.6,9.1,8,15.8,10.4
			C2148.6,542.8,2157.2,544.6,2167.6,545.8L2167.6,545.8z"/>
	</g>
</g>
<g transform="translate(140, 0)">
	<g transform="scale(0.7799999999999998)">
		<path class="st4" d="M2359.5,549.1L2359.5,549.1c24.1,0,42.4-1.3,55-3.9l0,0v-86.7c-4.3-1.3-10.6-2.5-18.8-3.8
			c-8.2-1.3-17.2-2-27.2-2l0,0c-8.6,0-17.3,0.7-26.2,2c-8.8,1.3-16.8,3.6-23.9,7.1c-7.2,3.5-12.9,8.3-17.2,14.5
			c-4.3,6.2-6.4,14.1-6.4,23.6l0,0c0,18.5,5.8,31.4,17.4,38.6C2323.9,545.6,2339.7,549.1,2359.5,549.1z M2353.1,257.4L2353.1,257.4
			c25.9,0,47.7,3.2,65.3,9.7c17.6,6.4,31.7,15.5,42.3,27.2c10.5,11.6,18.1,25.7,22.6,42.3c4.6,16.6,6.8,34.8,6.8,54.6l0,0v205.1
			c-12.1,2.5-30.4,5.6-54.7,9.4c-24.4,3.6-51.8,5.4-82.4,5.4l0,0c-20.3,0-38.9-1.9-55.7-5.8c-16.8-3.9-31.1-10.1-43-18.7
			c-11.9-8.7-21.2-19.9-27.8-33.6c-6.7-13.8-10-30.9-10-51.2l0,0c0-19.4,3.7-35.8,11.2-49.2c7.6-13.3,17.8-24.2,30.7-32.6
			c13-8.4,28-14.5,45-18.1c17-3.7,34.8-5.6,53.3-5.6l0,0c8.7,0,17.7,0.5,27.2,1.6c9.5,1.1,19.7,2.9,30.5,5.4l0,0v-12.9
			c0-9-1.1-17.7-3.3-25.9c-2.1-8.2-5.9-15.4-11.2-21.6c-5.4-6.2-12.5-11.1-21.4-14.5c-8.8-3.5-20-5.2-33.4-5.2l0,0
			c-18.1,0-34.7,1.3-49.8,3.9c-15.1,2.5-27.4,5.5-36.9,9l0,0l-9.6-63.3c9.9-3.5,24.3-6.9,43.4-10.4
			C2311.3,259.1,2331.5,257.4,2353.1,257.4z"/>
	</g>
</g>
<g transform="translate(160, 0)">
	<g transform="scale(0.7799999999999998)">
		<path class="st4" d="M2760.9,265.8h80.8c-34.9,128.5-75.4,245-121.6,349.4l0,0c-8.6,19.4-17.4,36-26.5,49.8
			c-9,13.8-19.1,25.2-30.3,34.3c-11.2,9.1-23.7,15.7-37.5,19.7c-13.8,4.1-29.8,6.2-47.9,6.2l0,0c-12,0-24-1.3-35.9-3.9
			c-11.8-2.5-20.7-5.3-26.8-8.3l0,0l14.2-62.8c15.6,6.1,30.9,9.1,46,9.1l0,0c20.2,0,36.1-4.8,47.5-14.5s21.5-24.7,30.1-45l0,0
			c-24.6-47.4-48.2-99.2-70.8-155.2c-22.7-56-42.8-115.6-60.5-178.6l0,0h83.4c4.3,18.1,9.6,37.8,15.9,58.9
			c6.2,21.2,13,42.6,20.3,64.3c7.3,21.8,15.1,43.5,23.3,65.1s16.4,41.6,24.6,60.2l0,0c13.7-38.4,26.7-79.3,38.8-122.6
			C2739.9,348.2,2750.9,306.3,2760.9,265.8L2760.9,265.8z"/>
	</g>
</g>
</svg>
