<?xml version="1.0" encoding="utf-8"?>
<!-- Generator: Adobe Illustrator 24.0.1, SVG Export Plug-In . SVG Version: 6.00 Build 0)  -->
<svg version="1.1" id="Layer_1" xmlns="http://www.w3.org/2000/svg" xmlns:xlink="http://www.w3.org/1999/xlink" x="0px" y="0px"
	 viewBox="0 0 2400 1800" style="enable-background:new 0 0 2400 1800;" xml:space="preserve">
<style type="text/css">
	.st0{filter:url(#Adobe_OpacityMaskFilter);}
	.st1{fill-rule:evenodd;clip-rule:evenodd;fill:#FFFFFF;}
	.st2{mask:url(#SVGID_1_);fill:url(#SVGID_2_);}
	.st3{fill:#FFFFFF;}
	.st4{filter:url(#a4c2f361-7cf1-4ce2-a348-182ffbe6b943);}
	.st5{opacity:0;fill:#333333;}
	.st6{filter:url(#Adobe_OpacityMaskFilter_1_);}
	.st7{mask:url(#_x31_bcca565-ae2b-4e21-b441-4a93cec798a9_2_);}
	.st8{fill-rule:evenodd;clip-rule:evenodd;fill:#333333;}
	.st9{fill:#333333;}
	.st10{fill:#333333;fill-opacity:0;}
</style>
<filter  filterUnits="userSpaceOnUse" id="a4c2f361-7cf1-4ce2-a348-182ffbe6b943">
	<feColorMatrix  type="matrix" values="0 0 0 0 0.99609375  0 0 0 0 0.99609375  0 0 0 0 0.99609375  0 0 0 1 0"></feColorMatrix>
</filter>
<rect width="2400" height="1800"/>
<defs>
	<filter id="Adobe_OpacityMaskFilter" filterUnits="userSpaceOnUse" x="521.8" y="733" width="334.1" height="334.1">
		<feColorMatrix  type="matrix" values="1 0 0 0 0  0 1 0 0 0  0 0 1 0 0  0 0 0 1 0"/>
	</filter>
</defs>
<mask maskUnits="userSpaceOnUse" x="521.8" y="733" width="334.1" height="334.1" id="SVGID_1_">
	<g class="st0">
		<g>
			<g transform="scale(1, 1) skewX(0)">
				<path class="st1" d="M639,775.3h174.5v174.5c0,41.3-33.5,74.8-74.8,74.8H564.2V850.1C564.2,808.8,597.6,775.3,639,775.3z"/>
			</g>
		</g>
	</g>
</mask>
<linearGradient id="SVGID_2_" gradientUnits="userSpaceOnUse" x1="891.3239" y1="1297.0087" x2="892.3239" y2="1297.0087" gradientTransform="matrix(334.0588 0 0 -334.0588 -297232.7812 434177.2188)">
	<stop  offset="0" style="stop-color:#FD9248"/>
	<stop  offset="0.5" style="stop-color:#FA1768"/>
	<stop  offset="1" style="stop-color:#F001FF"/>
</linearGradient>
<rect x="521.8" y="733" class="st2" width="334.1" height="334.1"/>
<g transform="translate(39, 0)">
	<g transform="scale(0.7799999999999998)">
		<path class="st3" d="M1151.6,1166.7L1151.6,1166.7c0-19.5-4.4-34.6-13.2-45.5c-8.8-10.9-22.9-16.3-42.4-16.3l0,0
			c-4.1,0-8.4,0.2-12.8,0.6s-8.9,1.2-13.2,2.3l0,0v108c3.9,2.7,9,5.2,15.4,7.4c6.4,2.3,13.2,3.5,20.4,3.5l0,0
			c15.9,0,27.5-5.4,34.9-16.2C1147.9,1199.6,1151.6,1185,1151.6,1166.7z M1196.4,1166L1196.4,1166c0,14.4-1.9,27.7-5.6,39.7
			c-3.7,12-9.1,22.4-16,31.1c-7,8.7-15.7,15.5-26.2,20.3c-10.5,4.8-22.4,7.2-35.6,7.2l0,0c-8.9,0-17.1-1.1-24.6-3.2
			c-7.4-2.2-13.6-4.6-18.4-7.2l0,0v73.3h-43.7v-249.7c8.9-2.4,19.9-4.7,32.9-6.8c13-2.2,26.7-3.2,41.2-3.2l0,0
			c15,0,28.3,2.3,40.1,6.8c11.8,4.6,21.9,11.2,30.2,19.7c8.3,8.6,14.7,18.9,19.1,31.1C1194.2,1137.1,1196.4,1150.8,1196.4,1166z"/>
	</g>
</g>
<g transform="translate(61, 0)">
	<g transform="scale(0.7799999999999998)">
		<path class="st3" d="M1197.1,1166.7L1197.1,1166.7c0-16.6,2.5-31.2,7.4-43.7c4.9-12.5,11.5-22.9,19.7-31.3
			c8.2-8.3,17.6-14.5,28.2-18.8c10.6-4.2,21.4-6.3,32.5-6.3l0,0c26,0,46.3,8.1,60.9,24.2c14.5,16.1,21.8,40.2,21.8,72.2l0,0
			c0,2.4,0,5.1-0.1,8.1c-0.1,3-0.3,5.7-0.6,8.2l0,0h-124.7c1.2,15.2,6.6,26.9,16.1,35.2c9.5,8.3,23.3,12.4,41.4,12.4l0,0
			c10.6,0,20.3-1,29.1-2.9s15.7-4,20.8-6.1l0,0l5.8,35.8c-2.4,1.2-5.7,2.4-9.9,3.8c-4.2,1.3-9.1,2.5-14.5,3.6s-11.2,2-17.5,2.7
			c-6.3,0.8-12.7,1.1-19.2,1.1l0,0c-16.6,0-31.1-2.5-43.3-7.4c-12.3-4.9-22.4-11.8-30.4-20.6c-8-8.8-13.8-19.2-17.6-31.1
			C1199.1,1194,1197.1,1180.9,1197.1,1166.7z M1242.7,1147.2h81.2c0-6-0.8-11.7-2.5-17.2s-4.2-10.1-7.4-14.1
			c-3.2-4-7.2-7.1-11.9-9.4c-4.7-2.3-10.3-3.4-16.8-3.4l0,0c-6.7,0-12.6,1.2-17.6,3.7c-5.1,2.5-9.4,5.9-12.8,10
			c-3.5,4.1-6.2,8.8-8.1,14.1C1244.7,1136.2,1243.4,1141.6,1242.7,1147.2L1242.7,1147.2z"/>
	</g>
</g>
<g transform="translate(83, 0)">
	<g transform="scale(0.7799999999999998)">
		<path class="st3" d="M1368,1260.3v-182.8c8.4-2.4,19.4-4.7,32.9-6.8c13.5-2.2,28.4-3.2,44.8-3.2l0,0c15.4,0,28.3,2.1,38.7,6.4
			c10.4,4.2,18.6,10.1,24.8,17.6c6.1,7.6,10.4,16.8,13,27.5c2.5,10.7,3.8,22.5,3.8,35.2l0,0v106.2h-43.8v-99.3
			c0-10.1-0.7-18.7-2-25.8c-1.3-7.1-3.5-12.9-6.5-17.4c-3-4.5-7.1-7.7-12.3-9.7c-5.2-2.1-11.5-3.1-19-3.1l0,0
			c-5.5,0-11.3,0.4-17.3,1.1c-6,0.7-10.5,1.3-13.4,1.8l0,0v152.5H1368z"/>
	</g>
</g>
<g transform="translate(104, 0)">
	<g transform="scale(0.7799999999999998)">
		<path class="st3" d="M1601.9,1007.3L1601.9,1007.3c36.4,0,64.3,6.6,83.6,19.9c19.4,13.2,29.1,33.9,29.1,62.1l0,0
			c0,14.7-2.6,27.3-7.8,37.8c-5.2,10.5-12.7,19-22.6,25.6c-9.9,6.6-21.9,11.5-36.1,14.7c-14.2,3.1-30.5,4.7-48.8,4.7l0,0h-22.7v88.2
			h-45.5v-246.8c10.6-2.4,22.3-4,35.2-4.9C1579.3,1007.8,1591.1,1007.3,1601.9,1007.3z M1605.2,1046.7L1605.2,1046.7
			c-11.6,0-21.1,0.4-28.5,1.1l0,0v85.2h22c21.9,0,38.8-3.1,50.5-9.2c11.8-6.2,17.7-17.8,17.7-34.9l0,0c0-8.2-1.6-15.1-4.7-20.6
			c-3.2-5.5-7.5-9.8-13.1-13c-5.5-3.1-12.1-5.3-19.7-6.7C1622,1047.4,1613.8,1046.7,1605.2,1046.7z"/>
	</g>
</g>
<g transform="translate(128, 0)">
	<g transform="scale(0.7799999999999998)">
		<path class="st3" d="M1790.2,1227.7l-6.1,36.1c-13-0.2-23.8-1.7-32.4-4.3c-8.5-2.7-15.3-6.5-20.4-11.4c-5-4.9-8.6-11.1-10.7-18.4
			c-2-7.4-3-15.8-3-25.1l0,0V987.2l43.7-7.3v216.4c0,5.3,0.4,9.8,1.3,13.3c0.8,3.6,2.4,6.7,4.5,9.2c2.2,2.5,5.1,4.5,8.8,5.8
			C1779.6,1226,1784.4,1227,1790.2,1227.7L1790.2,1227.7z"/>
	</g>
</g>
<g transform="translate(140, 0)">
	<g transform="scale(0.7799999999999998)">
		<path class="st3" d="M1890.6,1229.6L1890.6,1229.6c13.5,0,23.7-0.7,30.7-2.2l0,0v-48.4c-2.4-0.7-5.9-1.4-10.5-2.1
			c-4.6-0.8-9.6-1.1-15.2-1.1l0,0c-4.8,0-9.7,0.4-14.6,1.1c-4.9,0.7-9.4,2-13.3,4c-4,1.9-7.2,4.6-9.6,8.1c-2.4,3.5-3.6,7.9-3.6,13.2
			l0,0c0,10.4,3.2,17.5,9.7,21.5C1870.7,1227.6,1879.5,1229.6,1890.6,1229.6z M1887,1066.6L1887,1066.6c14.4,0,26.6,1.8,36.5,5.4
			c9.8,3.6,17.7,8.6,23.6,15.2c5.9,6.5,10.1,14.4,12.6,23.6c2.5,9.3,3.8,19.4,3.8,30.5l0,0V1256c-6.8,1.4-17,3.2-30.6,5.2
			c-13.6,2-28.9,3-46,3l0,0c-11.3,0-21.7-1.1-31.1-3.2c-9.4-2.2-17.4-5.6-24-10.4c-6.6-4.8-11.8-11.1-15.5-18.8
			c-3.7-7.7-5.6-17.2-5.6-28.6l0,0c0-10.8,2.1-20,6.3-27.5c4.2-7.4,10-13.5,17.2-18.2c7.2-4.7,15.6-8.1,25.1-10.1
			c9.5-2.1,19.4-3.1,29.8-3.1l0,0c4.8,0,9.9,0.3,15.2,0.9c5.3,0.6,11,1.6,17,3l0,0v-7.2c0-5-0.6-9.9-1.8-14.5
			c-1.2-4.6-3.3-8.6-6.3-12.1c-3-3.5-7-6.2-11.9-8.1c-4.9-1.9-11.2-2.9-18.6-2.9l0,0c-10.1,0-19.4,0.7-27.8,2.2
			c-8.4,1.4-15.3,3.1-20.6,5l0,0l-5.4-35.4c5.5-1.9,13.6-3.9,24.2-5.8C1863.6,1067.6,1875,1066.6,1887,1066.6z"/>
	</g>
</g>
<g transform="translate(160, 0)">
	<g transform="scale(0.7799999999999998)">
		<path class="st3" d="M2103.4,1071.3h45.1c-19.5,71.8-42.1,136.8-67.9,195.1l0,0c-4.8,10.8-9.7,20.1-14.8,27.8
			c-5,7.7-10.7,14.1-16.9,19.1c-6.3,5.1-13.2,8.8-21,11c-7.7,2.3-16.6,3.5-26.8,3.5l0,0c-6.7,0-13.4-0.7-20-2.2
			c-6.6-1.4-11.6-3-15-4.7l0,0l7.9-35.1c8.7,3.4,17.3,5.1,25.7,5.1l0,0c11.3,0,20.1-2.7,26.5-8.1c6.4-5.4,12-13.8,16.8-25.1l0,0
			c-13.7-26.5-26.9-55.4-39.5-86.7c-12.7-31.3-23.9-64.5-33.8-99.7l0,0h46.6c2.4,10.1,5.4,21.1,8.9,32.9
			c3.5,11.8,7.3,23.8,11.4,35.9c4.1,12.2,8.4,24.3,13,36.4c4.6,12,9.2,23.2,13.8,33.6l0,0c7.7-21.5,14.9-44.3,21.7-68.5
			C2091.7,1117.4,2097.9,1093.9,2103.4,1071.3L2103.4,1071.3z"/>
	</g>
</g>
<g class="st4">
	<g>
		<g>
			<rect x="0" y="17.6" class="st5" width="249.4" height="249.4"/>
		</g>
		<defs>
			<filter id="Adobe_OpacityMaskFilter_1_" filterUnits="userSpaceOnUse" x="0" y="17.6" width="249.4" height="249.4">
				<feColorMatrix  type="matrix" values="1 0 0 0 0  0 1 0 0 0  0 0 1 0 0  0 0 0 1 0"/>
			</filter>
		</defs>
		<mask maskUnits="userSpaceOnUse" x="0" y="17.6" width="249.4" height="249.4" id="_x31_bcca565-ae2b-4e21-b441-4a93cec798a9_2_">
			<g class="st6">
				<g transform="scale(1, 1) skewX(0)">
					<path class="st1" d="M639,775.3h174.5v174.5c0,41.3-33.5,74.8-74.8,74.8H564.2V850.1C564.2,808.8,597.6,775.3,639,775.3z"/>
				</g>
			</g>
			<g>
				<path d="M689,1005.7L689,1005.7c-20.5,0-38.9-4.6-55.2-13.8S604.6,970,595.4,954c-9.2-16.1-13.8-34-13.8-53.7l0,0
					c0-20.1,4.7-38.3,14.1-54.4c9.4-16.1,22.3-28.8,38.6-37.9c16.3-9.1,34.5-13.7,54.7-13.7l0,0c20.1,0,38.4,4.6,54.7,13.7
					c16.3,9.1,29.1,21.8,38.4,37.9c9.3,16.1,14,34.2,14,54.4l0,0c0,19.6-4.6,37.4-13.8,53.5c-9.2,16.1-21.9,28.8-38.2,38
					C727.8,1001.1,709.5,1005.7,689,1005.7z M689,959.9L689,959.9c11.4,0,21.6-2.6,30.6-7.7c9.1-5.1,16.2-12.2,21.3-21.3
					c5.1-9,7.7-19.2,7.7-30.6l0,0c0-11.5-2.6-21.9-7.7-31.2c-5.1-9.2-12.2-16.4-21.3-21.5c-9-5.1-19.2-7.7-30.6-7.7l0,0
					c-11.5,0-21.9,2.6-30.9,7.7c-9,5.1-16.1,12.3-21.1,21.4c-5,9.1-7.5,19.6-7.5,31.3l0,0c0,11.2,2.5,21.3,7.5,30.5
					c5,9.1,12.1,16.3,21.3,21.4C667.4,957.3,677.6,959.9,689,959.9z"/>
			</g>
		</mask>
		<g class="st7">
			<g>
				<g transform="scale(1, 1) skewX(0)">
					<path class="st8" d="M74.8,17.6h174.5v174.5c0,41.3-33.5,74.8-74.8,74.8H0V92.5C0,51.1,33.5,17.6,74.8,17.6z"/>
				</g>
			</g>
			<g>
				<path class="st9" d="M124.8,248L124.8,248c-20.5,0-38.9-4.6-55.2-13.8s-29.1-21.8-38.3-37.9c-9.2-16.1-13.8-34-13.8-53.7l0,0
					c0-20.1,4.7-38.3,14.1-54.4C41,72.1,53.8,59.5,70.1,50.3c16.3-9.1,34.5-13.7,54.7-13.7l0,0c20.1,0,38.4,4.6,54.7,13.7
					c16.3,9.1,29.1,21.8,38.4,37.9c9.3,16.1,14,34.2,14,54.4l0,0c0,19.6-4.6,37.4-13.8,53.5c-9.2,16.1-21.9,28.8-38.2,38
					C163.7,243.4,145.3,248,124.8,248z M124.8,202.2L124.8,202.2c11.4,0,21.6-2.6,30.6-7.7c9.1-5.1,16.2-12.2,21.3-21.3
					c5.1-9,7.7-19.2,7.7-30.6l0,0c0-11.5-2.6-21.9-7.7-31.2c-5.1-9.2-12.2-16.4-21.3-21.5c-9-5.1-19.2-7.7-30.6-7.7l0,0
					c-11.5,0-21.9,2.6-30.9,7.7c-9,5.1-16.1,12.3-21.1,21.4c-5,9.1-7.5,19.6-7.5,31.3l0,0c0,11.2,2.5,21.3,7.5,30.5
					c5,9.1,12.1,16.3,21.3,21.4C103.2,199.6,113.4,202.2,124.8,202.2z"/>
			</g>
		</g>
	</g>
</g>
<rect x="564.2" y="775.3" class="st10" width="249.4" height="249.4"/>
<g>
	<path d="M689,1005.7L689,1005.7c-20.5,0-38.9-4.6-55.2-13.8S604.6,970,595.4,954c-9.2-16.1-13.8-34-13.8-53.7l0,0
		c0-20.1,4.7-38.3,14.1-54.4c9.4-16.1,22.3-28.8,38.6-37.9c16.3-9.1,34.5-13.7,54.7-13.7l0,0c20.1,0,38.4,4.6,54.7,13.7
		c16.3,9.1,29.1,21.8,38.4,37.9c9.3,16.1,14,34.2,14,54.4l0,0c0,19.6-4.6,37.4-13.8,53.5c-9.2,16.1-21.9,28.8-38.2,38
		C727.8,1001.1,709.5,1005.7,689,1005.7z M689,959.9L689,959.9c11.4,0,21.6-2.6,30.6-7.7c9.1-5.1,16.2-12.2,21.3-21.3
		c5.1-9,7.7-19.2,7.7-30.6l0,0c0-11.5-2.6-21.9-7.7-31.2c-5.1-9.2-12.2-16.4-21.3-21.5c-9-5.1-19.2-7.7-30.6-7.7l0,0
		c-11.5,0-21.9,2.6-30.9,7.7c-9,5.1-16.1,12.3-21.1,21.4c-5,9.1-7.5,19.6-7.5,31.3l0,0c0,11.2,2.5,21.3,7.5,30.5
		c5,9.1,12.1,16.3,21.3,21.4C667.4,957.3,677.6,959.9,689,959.9z"/>
</g>
</svg>
