<svg xmlns="http://www.w3.org/2000/svg" xmlns:xlink="http://www.w3.org/1999/xlink" version="1.0" x="0" y="0" width="2400" height="645.2285068880283" viewBox="72.06039016723633 99.47803085327149 189.8792349243164 51.04812301635742" preserveAspectRatio="xMidYMid meet" color-interpolation-filters="sRGB"><g><defs><linearGradient id="92" x1="0%" y1="0%" x2="100%" y2="0%"><stop offset="0%" stop-color="#fa71cd"></stop> <stop offset="100%" stop-color="#9b59b6"></stop></linearGradient><linearGradient id="93" x1="0%" y1="0%" x2="100%" y2="0%"><stop offset="0%" stop-color="#f9d423"></stop> <stop offset="100%" stop-color="#f83600"></stop></linearGradient><linearGradient id="94" x1="0%" y1="0%" x2="100%" y2="0%"><stop offset="0%" stop-color="#0064d2"></stop> <stop offset="100%" stop-color="#1cb0f6"></stop></linearGradient><linearGradient id="95" x1="0%" y1="0%" x2="100%" y2="0%"><stop offset="0%" stop-color="#f00978"></stop> <stop offset="100%" stop-color="#3f51b1"></stop></linearGradient><linearGradient id="96" x1="0%" y1="0%" x2="100%" y2="0%"><stop offset="0%" stop-color="#7873f5"></stop> <stop offset="100%" stop-color="#ec77ab"></stop></linearGradient><linearGradient id="97" x1="0%" y1="0%" x2="100%" y2="0%"><stop offset="0%" stop-color="#f9d423"></stop> <stop offset="100%" stop-color="#e14fad"></stop></linearGradient><linearGradient id="98" x1="0%" y1="0%" x2="100%" y2="0%"><stop offset="0%" stop-color="#009efd"></stop> <stop offset="100%" stop-color="#2af598"></stop></linearGradient><linearGradient id="99" x1="0%" y1="0%" x2="100%" y2="0%"><stop offset="0%" stop-color="#ffcc00"></stop> <stop offset="100%" stop-color="#00b140"></stop></linearGradient><linearGradient id="100" x1="0%" y1="0%" x2="100%" y2="0%"><stop offset="0%" stop-color="#d51007"></stop> <stop offset="100%" stop-color="#ff8177"></stop></linearGradient><linearGradient id="102" x1="0%" y1="0%" x2="100%" y2="0%"><stop offset="0%" stop-color="#a2b6df"></stop> <stop offset="100%" stop-color="#0c3483"></stop></linearGradient><linearGradient id="103" x1="0%" y1="0%" x2="100%" y2="0%"><stop offset="0%" stop-color="#7ac5d8"></stop> <stop offset="100%" stop-color="#eea2a2"></stop></linearGradient><linearGradient id="104" x1="0%" y1="0%" x2="100%" y2="0%"><stop offset="0%" stop-color="#00ecbc"></stop> <stop offset="100%" stop-color="#007adf"></stop></linearGradient><linearGradient id="105" x1="0%" y1="0%" x2="100%" y2="0%"><stop offset="0%" stop-color="#b88746"></stop> <stop offset="100%" stop-color="#fdf5a6"></stop></linearGradient></defs><g fill="#333333" class="iconlinesvg-g iconlinesvg" transform="translate(79.92194366455078,105.78066329937428)"><g class="tp-name"><g transform="translate(0, 1.55892857142857)"><g mask="url(#f0e35ef7-c088-48ba-9924-e3670a873bc5)"><g fill="#333333" class="imagesvg"><rect fill="#333333" fill-opacity="0" stroke-width="2" x="0" y="0" width="35.324999999999996" height="35.324999999999996" class="image-rect"></rect> <svg viewBox="0 0 60 60" x="0" y="0" width="35.324999999999996" height="35.324999999999996" class="image-svg-svg bn" style="overflow: visible;"><g hollow-target="iconBnFill" mask="url(#36f0e356-7210-408b-97c6-4cff9181ab21)"><g><svg xmlns="http://www.w3.org/2000/svg" viewBox="0 0 100 100" style="overflow: visible;" width="60" height="60" x="0" y="0" filtersec="colorsf5494122906" filter="url(#ZFF0gIvmofg0dOtaVRiWv)"><g transform="scale(1, 1) skewX(0)"><path d="M30 0h70v70c0 16.569-13.431 30-30 30H0V30C0 13.431 13.431 0 30 0z" fill-rule="evenodd"></path></g><defs><filter id="ZFF0gIvmofg0dOtaVRiWv"><feColorMatrix type="matrix" values="0 0 0 0 0.19921875  0 0 0 0 0.19921875  0 0 0 0 0.19921875  0 0 0 1 0"></feColorMatrix></filter></defs></svg></g> <g filter="url(#colors7796358690)"><svg xmlns="http://www.w3.org/2000/svg" xmlns:xlink="http://www.w3.org/1999/xlink" viewBox="0.002777099609375 1.6351737976074219 39.25 38.690006256103516" width="51.6" height="51.6" x="4.199999999999999" y="4.199999999999999" class="image-svg-letter"><path d="M22.57 0.61L22.57 0.61Q16.94 0.61 12.46-1.92Q7.98-4.45 5.45-8.85Q2.92-13.26 2.92-18.68L2.92-18.68Q2.92-24.21 5.50-28.63Q8.09-33.06 12.56-35.57Q17.04-38.08 22.57-38.08L22.57-38.08Q28.10-38.08 32.58-35.57Q37.05-33.06 39.61-28.63Q42.17-24.21 42.17-18.68L42.17-18.68Q42.17-13.31 39.64-8.88Q37.11-4.45 32.65-1.92Q28.20 0.61 22.57 0.61ZM22.57-7.78L22.57-7.78Q25.69-7.78 28.17-9.19Q30.66-10.59 32.06-13.08Q33.47-15.56 33.47-18.68L33.47-18.68Q33.47-21.85 32.06-24.39Q30.66-26.92 28.17-28.33Q25.69-29.74 22.57-29.74L22.57-29.74Q19.40-29.74 16.91-28.33Q14.43-26.92 13.05-24.41Q11.67-21.90 11.67-18.68L11.67-18.68Q11.67-15.61 13.05-13.10Q14.43-10.59 16.94-9.19Q19.45-7.78 22.57-7.78Z" transform="translate(-2.917222963951936, 39.715175789942144)"></path></svg></g></g><mask id="36f0e356-7210-408b-97c6-4cff9181ab21"><g fill="white"><svg xmlns="http://www.w3.org/2000/svg" viewBox="0 0 100 100" style="overflow: visible;" width="60" height="60" x="0" y="0" filtersec="colorsf5494122906"><g transform="scale(1, 1) skewX(0)"><path d="M30 0h70v70c0 16.569-13.431 30-30 30H0V30C0 13.431 13.431 0 30 0z" fill-rule="evenodd"></path></g><defs></defs></svg></g> <g fill="black"><svg xmlns="http://www.w3.org/2000/svg" xmlns:xlink="http://www.w3.org/1999/xlink" viewBox="0.002777099609375 1.6351737976074219 39.25 38.690006256103516" width="51.6" height="51.6" x="4.199999999999999" y="4.199999999999999" class="image-svg-letter"><path d="M22.57 0.61L22.57 0.61Q16.94 0.61 12.46-1.92Q7.98-4.45 5.45-8.85Q2.92-13.26 2.92-18.68L2.92-18.68Q2.92-24.21 5.50-28.63Q8.09-33.06 12.56-35.57Q17.04-38.08 22.57-38.08L22.57-38.08Q28.10-38.08 32.58-35.57Q37.05-33.06 39.61-28.63Q42.17-24.21 42.17-18.68L42.17-18.68Q42.17-13.31 39.64-8.88Q37.11-4.45 32.65-1.92Q28.20 0.61 22.57 0.61ZM22.57-7.78L22.57-7.78Q25.69-7.78 28.17-9.19Q30.66-10.59 32.06-13.08Q33.47-15.56 33.47-18.68L33.47-18.68Q33.47-21.85 32.06-24.39Q30.66-26.92 28.17-28.33Q25.69-29.74 22.57-29.74L22.57-29.74Q19.40-29.74 16.91-28.33Q14.43-26.92 13.05-24.41Q11.67-21.90 11.67-18.68L11.67-18.68Q11.67-15.61 13.05-13.10Q14.43-10.59 16.94-9.19Q19.45-7.78 22.57-7.78Z" transform="translate(-2.917222963951936, 39.715175789942144)"></path></svg></g></mask></svg> <defs><filter id="colors7796358690"><feColorMatrix type="matrix" values="0 0 0 0 0.19921875  0 0 0 0 0.19921875  0 0 0 0 0.19921875  0 0 0 1 0" class="icon-feColorMatrix "></feColorMatrix></filter> <filter id="colorsf5494122906"><feColorMatrix type="matrix" values="0 0 0 0 0.99609375  0 0 0 0 0.99609375  0 0 0 0 0.99609375  0 0 0 1 0" class="icon-fecolormatrix"></feColorMatrix></filter> <filter id="colorsb7866869579"><feColorMatrix type="matrix" values="0 0 0 0 0  0 0 0 0 0  0 0 0 0 0  0 0 0 1 0" class="icon-fecolormatrix"></feColorMatrix></filter></defs></g><rect v-gra="id" width="47.32500076293945" height="47.32500076293945" transform="translate(-6, -6)" style="pointer-events:none;" fill="url(#cTZo7Mzj6mYYwIwfeAgAJ)"></rect></g></g><g transform="translate(39, 0)"><g fill="#333333" transform="scale(0.7799999999999998)"><path d="M21.70-13.26L21.70-13.26Q21.70-17.40 19.83-19.70Q17.96-22.01 13.82-22.01L13.82-22.01Q12.95-22.01 12.00-21.93Q11.05-21.85 10.13-21.60L10.13-21.60L10.13-6.30Q10.95-5.73 12.31-5.25Q13.66-4.76 15.20-4.76L15.20-4.76Q18.58-4.76 20.14-7.06Q21.70-9.37 21.70-13.26ZM28.05-13.36L28.05-13.36Q28.05-10.29 27.25-7.73Q26.46-5.17 24.98-3.33Q23.49-1.48 21.27-0.46Q19.04 0.56 16.22 0.56L16.22 0.56Q14.33 0.56 12.74 0.10Q11.16-0.36 10.13-0.92L10.13-0.92L10.13 9.47L3.94 9.47L3.94-25.90Q5.83-26.41 8.60-26.87Q11.36-27.33 14.43-27.33L14.43-27.33Q17.61-27.33 20.11-26.36Q22.62-25.38 24.39-23.57Q26.15-21.75 27.10-19.17Q28.05-16.58 28.05-13.36Z" transform="translate(-3.940809968847352, 39.715175789942144)"></path></g></g><g transform="translate(61, 0)"><g fill="#333333" transform="scale(0.7799999999999998)"><path d="M2.46-13.26L2.46-13.26Q2.46-16.79 3.51-19.45Q4.55-22.11 6.30-23.88Q8.04-25.64 10.29-26.54Q12.54-27.43 14.89-27.43L14.89-27.43Q20.42-27.43 23.52-24.00Q26.61-20.57 26.61-13.77L26.61-13.77Q26.61-13.26 26.59-12.62Q26.56-11.98 26.51-11.46L26.51-11.46L8.85-11.46Q9.11-8.24 11.13-6.47Q13.15-4.71 16.99-4.71L16.99-4.71Q19.24-4.71 21.11-5.12Q22.98-5.53 24.05-5.99L24.05-5.99L24.87-0.92Q24.36-0.67 23.47-0.38Q22.57-0.10 21.42 0.13Q20.27 0.36 18.94 0.51Q17.61 0.67 16.22 0.67L16.22 0.67Q12.69 0.67 10.08-0.38Q7.47-1.43 5.78-3.30Q4.09-5.17 3.28-7.70Q2.46-10.24 2.46-13.26ZM8.91-16.02L20.42-16.02Q20.42-17.30 20.06-18.45Q19.70-19.60 19.01-20.45Q18.32-21.29 17.32-21.78Q16.33-22.26 14.94-22.26L14.94-22.26Q13.51-22.26 12.44-21.73Q11.36-21.19 10.62-20.32Q9.88-19.45 9.47-18.32Q9.06-17.20 8.91-16.02L8.91-16.02Z" transform="translate(-2.456608811748999, 39.715175789942144)"></path></g></g><g transform="translate(83, 0)"><g fill="#333333" transform="scale(0.7799999999999998)"><path d="M3.94 0L3.94-25.90Q5.73-26.41 8.60-26.87Q11.46-27.33 14.94-27.33L14.94-27.33Q18.22-27.33 20.42-26.43Q22.62-25.54 23.93-23.93Q25.23-22.31 25.77-20.04Q26.31-17.76 26.31-15.05L26.31-15.05L26.31 0L20.11 0L20.11-14.07Q20.11-16.22 19.83-17.73Q19.55-19.24 18.91-20.19Q18.27-21.14 17.17-21.57Q16.07-22.01 14.48-22.01L14.48-22.01Q13.31-22.01 12.03-21.85Q10.75-21.70 10.13-21.60L10.13-21.60L10.13 0L3.94 0Z" transform="translate(-3.940809968847352, 39.715175789942144)"></path></g></g><g transform="translate(104, 0)"><g fill="#333333" transform="scale(0.7799999999999998)"><path d="M14.28-35.83L14.28-35.83Q22.01-35.83 26.13-33.01Q30.25-30.20 30.25-24.21L30.25-24.21Q30.25-21.09 29.15-18.86Q28.05-16.63 25.95-15.23Q23.85-13.82 20.83-13.15Q17.81-12.49 13.92-12.49L13.92-12.49L10.70-12.49L10.70 0L4.25 0L4.25-34.96Q6.50-35.47 9.24-35.65Q11.98-35.83 14.28-35.83ZM14.74-30.25L14.74-30.25Q12.28-30.25 10.70-30.09L10.70-30.09L10.70-18.02L13.82-18.02Q18.48-18.02 20.98-19.32Q23.49-20.63 23.49-24.26L23.49-24.26Q23.49-26.00 22.83-27.18Q22.16-28.35 20.98-29.02Q19.81-29.68 18.19-29.97Q16.58-30.25 14.74-30.25Z" transform="translate(-4.247886070315977, 39.715175789942144)"></path></g></g><g transform="translate(128, 0)"><g fill="#333333" transform="scale(0.7799999999999998)"><path d="M14.13-4.61L13.26 0.51Q10.49 0.46 8.67-0.10Q6.86-0.67 5.78-1.71Q4.71-2.76 4.27-4.32Q3.84-5.89 3.84-7.88L3.84-7.88L3.84-38.69L10.03-39.72L10.03-9.06Q10.03-7.93 10.21-7.17Q10.39-6.40 10.85-5.86Q11.31-5.32 12.10-5.04Q12.90-4.76 14.13-4.61L14.13-4.61Z" transform="translate(-3.8384512683578103, 39.715175789942144)"></path></g></g><g transform="translate(140, 0)"><g fill="#333333" transform="scale(0.7799999999999998)"><path d="M13.36-4.35L13.36-4.35Q16.22-4.35 17.71-4.66L17.71-4.66L17.71-11.52Q17.20-11.67 16.22-11.82Q15.25-11.98 14.07-11.98L14.07-11.98Q13.05-11.98 12.00-11.82Q10.95-11.67 10.11-11.26Q9.26-10.85 8.75-10.11Q8.24-9.37 8.24-8.24L8.24-8.24Q8.24-6.04 9.62-5.19Q11.00-4.35 13.36-4.35ZM12.85-27.43L12.85-27.43Q15.92-27.43 18.02-26.66Q20.11-25.90 21.37-24.51Q22.62-23.13 23.16-21.16Q23.70-19.19 23.70-16.84L23.70-16.84L23.70-0.61Q22.26-0.31 19.37 0.13Q16.48 0.56 12.85 0.56L12.85 0.56Q10.44 0.56 8.44 0.10Q6.45-0.36 5.04-1.38Q3.63-2.41 2.84-4.04Q2.05-5.68 2.05-8.09L2.05-8.09Q2.05-10.39 2.94-11.98Q3.84-13.56 5.37-14.56Q6.91-15.56 8.93-15.99Q10.95-16.43 13.15-16.43L13.15-16.43Q14.18-16.43 15.30-16.30Q16.43-16.17 17.71-15.87L17.71-15.87L17.71-16.89Q17.71-17.96 17.45-18.94Q17.20-19.91 16.56-20.65Q15.92-21.39 14.87-21.80Q13.82-22.21 12.23-22.21L12.23-22.21Q10.08-22.21 8.29-21.90Q6.50-21.60 5.37-21.19L5.37-21.19L4.61-26.20Q5.78-26.61 8.04-27.02Q10.29-27.43 12.85-27.43Z" transform="translate(-2.047174009790832, 39.715175789942144)"></path></g></g><g transform="translate(160, 0)"><g fill="#333333" transform="scale(0.7799999999999998)"><path d="M19.40-26.77L25.79-26.77Q21.65-11.52 16.17 0.87L16.17 0.87Q15.15 3.17 14.07 4.81Q13.00 6.45 11.67 7.52Q10.34 8.60 8.70 9.08Q7.06 9.57 4.91 9.57L4.91 9.57Q3.48 9.57 2.07 9.26Q0.67 8.96-0.05 8.60L-0.05 8.60L1.07 3.63Q2.92 4.35 4.71 4.35L4.71 4.35Q7.11 4.35 8.47 3.20Q9.83 2.05 10.85-0.36L10.85-0.36Q7.93-5.99 5.25-12.64Q2.56-19.29 0.46-26.77L0.46-26.77L7.06-26.77Q7.57-24.62 8.32-22.11Q9.06-19.60 9.93-17.02Q10.80-14.43 11.77-11.87Q12.74-9.31 13.72-7.11L13.72-7.11Q15.35-11.67 16.79-16.81Q18.22-21.96 19.40-26.77L19.40-26.77Z" transform="translate(0.051179350244770806, 39.715175789942144)"></path></g></g></g> </g><defs v-gra="od"></defs><defs v-gra="id"><filter id="3d08673a-7463-475b-8d03-678672913f45" filterUnits="userSpaceOnUse"><feColorMatrix type="matrix" values="0 0 0 0 0.99609375  0 0 0 0 0.99609375  0 0 0 0 0.99609375  0 0 0 1 0"></feColorMatrix></filter><linearGradient x1="0" y1="0" x2="1" y2="0" id="cTZo7Mzj6mYYwIwfeAgAJ"><stop offset="0%" stop-color="#fd9248"></stop><stop offset="50%" stop-color="#fa1768"></stop><stop offset="100%" stop-color="#f001ff"></stop></linearGradient><filter id="42443b3f1de60f6b6fd3b6a9844b4764" filterUnits="objectBoundingBox"><feColorMatrix type="matrix" values="0 0 0 0 0.99609375  0 0 0 0 0.99609375  0 0 0 0 0.99609375  0 0 0 1 0"></feColorMatrix></filter></defs><mask v-gra="im" id="f0e35ef7-c088-48ba-9924-e3670a873bc5"><g filter="url(#3d08673a-7463-475b-8d03-678672913f45)"><g fill="#333333" class="imagesvg"><rect fill="#333333" fill-opacity="0" stroke-width="2" x="0" y="0" width="35.324999999999996" height="35.324999999999996" class="image-rect"></rect> <svg viewBox="0 0 60 60" x="0" y="0" width="35.324999999999996" height="35.324999999999996" class="image-svg-svg bn" style="overflow: visible;"><g hollow-target="iconBnFill" mask="url(#36f0e356-7210-408b-97c6-4cff9181ab21)"><g><svg xmlns="http://www.w3.org/2000/svg" viewBox="0 0 100 100" style="overflow: visible;" width="60" height="60" x="0" y="0" filtersec="colorsf5494122906"><g transform="scale(1, 1) skewX(0)"><path d="M30 0h70v70c0 16.569-13.431 30-30 30H0V30C0 13.431 13.431 0 30 0z" fill-rule="evenodd"></path></g><defs><filter id="ZFF0gIvmofg0dOtaVRiWv"><feColorMatrix type="matrix" values="0 0 0 0 0.19921875  0 0 0 0 0.19921875  0 0 0 0 0.19921875  0 0 0 1 0"></feColorMatrix></filter></defs></svg></g> <g><svg xmlns="http://www.w3.org/2000/svg" xmlns:xlink="http://www.w3.org/1999/xlink" viewBox="0.002777099609375 1.6351737976074219 39.25 38.690006256103516" width="51.6" height="51.6" x="4.199999999999999" y="4.199999999999999" class="image-svg-letter"><path d="M22.57 0.61L22.57 0.61Q16.94 0.61 12.46-1.92Q7.98-4.45 5.45-8.85Q2.92-13.26 2.92-18.68L2.92-18.68Q2.92-24.21 5.50-28.63Q8.09-33.06 12.56-35.57Q17.04-38.08 22.57-38.08L22.57-38.08Q28.10-38.08 32.58-35.57Q37.05-33.06 39.61-28.63Q42.17-24.21 42.17-18.68L42.17-18.68Q42.17-13.31 39.64-8.88Q37.11-4.45 32.65-1.92Q28.20 0.61 22.57 0.61ZM22.57-7.78L22.57-7.78Q25.69-7.78 28.17-9.19Q30.66-10.59 32.06-13.08Q33.47-15.56 33.47-18.68L33.47-18.68Q33.47-21.85 32.06-24.39Q30.66-26.92 28.17-28.33Q25.69-29.74 22.57-29.74L22.57-29.74Q19.40-29.74 16.91-28.33Q14.43-26.92 13.05-24.41Q11.67-21.90 11.67-18.68L11.67-18.68Q11.67-15.61 13.05-13.10Q14.43-10.59 16.94-9.19Q19.45-7.78 22.57-7.78Z" transform="translate(-2.917222963951936, 39.715175789942144)"></path></svg></g></g><mask id="36f0e356-7210-408b-97c6-4cff9181ab21"><g fill="white"><svg xmlns="http://www.w3.org/2000/svg" viewBox="0 0 100 100" style="overflow: visible;" width="60" height="60" x="0" y="0" filtersec="colorsf5494122906"><g transform="scale(1, 1) skewX(0)"><path d="M30 0h70v70c0 16.569-13.431 30-30 30H0V30C0 13.431 13.431 0 30 0z" fill-rule="evenodd"></path></g><defs></defs></svg></g> <g fill="black"><svg xmlns="http://www.w3.org/2000/svg" xmlns:xlink="http://www.w3.org/1999/xlink" viewBox="0.002777099609375 1.6351737976074219 39.25 38.690006256103516" width="51.6" height="51.6" x="4.199999999999999" y="4.199999999999999" class="image-svg-letter"><path d="M22.57 0.61L22.57 0.61Q16.94 0.61 12.46-1.92Q7.98-4.45 5.45-8.85Q2.92-13.26 2.92-18.68L2.92-18.68Q2.92-24.21 5.50-28.63Q8.09-33.06 12.56-35.57Q17.04-38.08 22.57-38.08L22.57-38.08Q28.10-38.08 32.58-35.57Q37.05-33.06 39.61-28.63Q42.17-24.21 42.17-18.68L42.17-18.68Q42.17-13.31 39.64-8.88Q37.11-4.45 32.65-1.92Q28.20 0.61 22.57 0.61ZM22.57-7.78L22.57-7.78Q25.69-7.78 28.17-9.19Q30.66-10.59 32.06-13.08Q33.47-15.56 33.47-18.68L33.47-18.68Q33.47-21.85 32.06-24.39Q30.66-26.92 28.17-28.33Q25.69-29.74 22.57-29.74L22.57-29.74Q19.40-29.74 16.91-28.33Q14.43-26.92 13.05-24.41Q11.67-21.90 11.67-18.68L11.67-18.68Q11.67-15.61 13.05-13.10Q14.43-10.59 16.94-9.19Q19.45-7.78 22.57-7.78Z" transform="translate(-2.917222963951936, 39.715175789942144)"></path></svg></g></mask></svg> <defs><filter id="colors7796358690"><feColorMatrix type="matrix" values="0 0 0 0 0.19921875  0 0 0 0 0.19921875  0 0 0 0 0.19921875  0 0 0 1 0" class="icon-fecolormatrix"></feColorMatrix></filter> <filter id="colorsf5494122906"><feColorMatrix type="matrix" values="0 0 0 0 0.99609375  0 0 0 0 0.99609375  0 0 0 0 0.99609375  0 0 0 1 0" class="icon-fecolormatrix"></feColorMatrix></filter> <filter id="colorsb7866869579"><feColorMatrix type="matrix" values="0 0 0 0 0  0 0 0 0 0  0 0 0 0 0  0 0 0 1 0" class="icon-fecolormatrix"></feColorMatrix></filter></defs></g></g></mask></g></svg>